<mxfile host="app.diagrams.net" modified="2024-01-07T12:37:24.421Z" agent="Mozilla/5.0 (Windows NT 10.0; Win64; x64) AppleWebKit/537.36 (KHTML, like Gecko) Chrome/120.0.0.0 Safari/537.36" etag="IzZojczHh8jx4WjNMNCH" version="22.1.17" type="github">
  <diagram name="Page-1" id="2YBvvXClWsGukQMizWep">
    <mxGraphModel dx="772" dy="1636" grid="1" gridSize="10" guides="1" tooltips="1" connect="1" arrows="1" fold="1" page="1" pageScale="1" pageWidth="850" pageHeight="1100" math="0" shadow="0">
      <root>
        <mxCell id="0" />
        <mxCell id="1" parent="0" />
        <mxCell id="6vysg8ZLrs8LIbjNRG5g-12" value="10. 任务完成，返回结果" style="html=1;verticalAlign=bottom;endArrow=open;dashed=1;endSize=8;edgeStyle=elbowEdgeStyle;elbow=vertical;curved=0;rounded=0;" edge="1" parent="1" target="6vysg8ZLrs8LIbjNRG5g-8">
          <mxGeometry relative="1" as="geometry">
            <mxPoint x="125" y="231.31" as="targetPoint" />
            <Array as="points">
              <mxPoint x="220" y="231.31" />
            </Array>
            <mxPoint x="295" y="231.31" as="sourcePoint" />
          </mxGeometry>
        </mxCell>
        <mxCell id="6vysg8ZLrs8LIbjNRG5g-10" value="6. 任务未完成" style="html=1;verticalAlign=bottom;endArrow=open;dashed=1;endSize=8;edgeStyle=elbowEdgeStyle;elbow=vertical;curved=0;rounded=0;" edge="1" parent="1">
          <mxGeometry relative="1" as="geometry">
            <mxPoint x="130" y="137" as="targetPoint" />
            <Array as="points">
              <mxPoint x="225" y="137" />
            </Array>
            <mxPoint x="300" y="137" as="sourcePoint" />
          </mxGeometry>
        </mxCell>
        <mxCell id="aM9ryv3xv72pqoxQDRHE-1" value="User Code" style="shape=umlLifeline;perimeter=lifelinePerimeter;whiteSpace=wrap;html=1;container=0;dropTarget=0;collapsible=0;recursiveResize=0;outlineConnect=0;portConstraint=eastwest;newEdgeStyle={&quot;edgeStyle&quot;:&quot;elbowEdgeStyle&quot;,&quot;elbow&quot;:&quot;vertical&quot;,&quot;curved&quot;:0,&quot;rounded&quot;:0};" parent="1" vertex="1">
          <mxGeometry x="70" y="-59" width="100" height="300" as="geometry" />
        </mxCell>
        <mxCell id="aM9ryv3xv72pqoxQDRHE-2" value="" style="html=1;points=[];perimeter=orthogonalPerimeter;outlineConnect=0;targetShapes=umlLifeline;portConstraint=eastwest;newEdgeStyle={&quot;edgeStyle&quot;:&quot;elbowEdgeStyle&quot;,&quot;elbow&quot;:&quot;vertical&quot;,&quot;curved&quot;:0,&quot;rounded&quot;:0};" parent="aM9ryv3xv72pqoxQDRHE-1" vertex="1">
          <mxGeometry x="45" y="70" width="10" height="230" as="geometry" />
        </mxCell>
        <mxCell id="aM9ryv3xv72pqoxQDRHE-4" value="" style="html=1;points=[];perimeter=orthogonalPerimeter;outlineConnect=0;targetShapes=umlLifeline;portConstraint=eastwest;newEdgeStyle={&quot;edgeStyle&quot;:&quot;elbowEdgeStyle&quot;,&quot;elbow&quot;:&quot;vertical&quot;,&quot;curved&quot;:0,&quot;rounded&quot;:0};" parent="aM9ryv3xv72pqoxQDRHE-1" vertex="1">
          <mxGeometry x="50" y="80" width="10" height="20" as="geometry" />
        </mxCell>
        <mxCell id="6vysg8ZLrs8LIbjNRG5g-3" value="" style="html=1;points=[];perimeter=orthogonalPerimeter;outlineConnect=0;targetShapes=umlLifeline;portConstraint=eastwest;newEdgeStyle={&quot;edgeStyle&quot;:&quot;elbowEdgeStyle&quot;,&quot;elbow&quot;:&quot;vertical&quot;,&quot;curved&quot;:0,&quot;rounded&quot;:0};" vertex="1" parent="aM9ryv3xv72pqoxQDRHE-1">
          <mxGeometry x="50" y="120" width="10" height="40" as="geometry" />
        </mxCell>
        <mxCell id="6vysg8ZLrs8LIbjNRG5g-7" value="" style="html=1;points=[];perimeter=orthogonalPerimeter;outlineConnect=0;targetShapes=umlLifeline;portConstraint=eastwest;newEdgeStyle={&quot;edgeStyle&quot;:&quot;elbowEdgeStyle&quot;,&quot;elbow&quot;:&quot;vertical&quot;,&quot;curved&quot;:0,&quot;rounded&quot;:0};" vertex="1" parent="aM9ryv3xv72pqoxQDRHE-1">
          <mxGeometry x="50" y="175" width="10" height="20" as="geometry" />
        </mxCell>
        <mxCell id="6vysg8ZLrs8LIbjNRG5g-8" value="" style="html=1;points=[];perimeter=orthogonalPerimeter;outlineConnect=0;targetShapes=umlLifeline;portConstraint=eastwest;newEdgeStyle={&quot;edgeStyle&quot;:&quot;elbowEdgeStyle&quot;,&quot;elbow&quot;:&quot;vertical&quot;,&quot;curved&quot;:0,&quot;rounded&quot;:0};" vertex="1" parent="aM9ryv3xv72pqoxQDRHE-1">
          <mxGeometry x="50" y="271" width="10" height="20" as="geometry" />
        </mxCell>
        <mxCell id="aM9ryv3xv72pqoxQDRHE-5" value="async_task" style="shape=umlLifeline;perimeter=lifelinePerimeter;whiteSpace=wrap;html=1;container=0;dropTarget=0;collapsible=0;recursiveResize=0;outlineConnect=0;portConstraint=eastwest;newEdgeStyle={&quot;edgeStyle&quot;:&quot;elbowEdgeStyle&quot;,&quot;elbow&quot;:&quot;vertical&quot;,&quot;curved&quot;:0,&quot;rounded&quot;:0};" parent="1" vertex="1">
          <mxGeometry x="250" y="-60" width="100" height="300" as="geometry" />
        </mxCell>
        <mxCell id="aM9ryv3xv72pqoxQDRHE-6" value="" style="html=1;points=[];perimeter=orthogonalPerimeter;outlineConnect=0;targetShapes=umlLifeline;portConstraint=eastwest;newEdgeStyle={&quot;edgeStyle&quot;:&quot;elbowEdgeStyle&quot;,&quot;elbow&quot;:&quot;vertical&quot;,&quot;curved&quot;:0,&quot;rounded&quot;:0};" parent="aM9ryv3xv72pqoxQDRHE-5" vertex="1">
          <mxGeometry x="45" y="80" width="10" height="220" as="geometry" />
        </mxCell>
        <mxCell id="aM9ryv3xv72pqoxQDRHE-7" value="1. 发送任务" style="html=1;verticalAlign=bottom;endArrow=block;edgeStyle=elbowEdgeStyle;elbow=vertical;curved=0;rounded=0;" parent="1" source="aM9ryv3xv72pqoxQDRHE-2" target="aM9ryv3xv72pqoxQDRHE-6" edge="1">
          <mxGeometry relative="1" as="geometry">
            <mxPoint x="225" y="30" as="sourcePoint" />
            <Array as="points">
              <mxPoint x="210" y="20" />
            </Array>
          </mxGeometry>
        </mxCell>
        <mxCell id="aM9ryv3xv72pqoxQDRHE-9" value="2. 成功返回" style="html=1;verticalAlign=bottom;endArrow=open;edgeStyle=elbowEdgeStyle;elbow=vertical;curved=0;rounded=0;dashed=1;endFill=0;" parent="1" target="aM9ryv3xv72pqoxQDRHE-4" edge="1">
          <mxGeometry relative="1" as="geometry">
            <mxPoint x="295" y="40" as="sourcePoint" />
            <Array as="points">
              <mxPoint x="220" y="40" />
            </Array>
            <mxPoint x="130" y="40" as="targetPoint" />
          </mxGeometry>
        </mxCell>
        <mxCell id="6vysg8ZLrs8LIbjNRG5g-1" value="task process" style="shape=umlLifeline;perimeter=lifelinePerimeter;whiteSpace=wrap;html=1;container=0;dropTarget=0;collapsible=0;recursiveResize=0;outlineConnect=0;portConstraint=eastwest;newEdgeStyle={&quot;edgeStyle&quot;:&quot;elbowEdgeStyle&quot;,&quot;elbow&quot;:&quot;vertical&quot;,&quot;curved&quot;:0,&quot;rounded&quot;:0};" vertex="1" parent="1">
          <mxGeometry x="420" y="-60" width="100" height="300" as="geometry" />
        </mxCell>
        <mxCell id="6vysg8ZLrs8LIbjNRG5g-2" value="" style="html=1;points=[];perimeter=orthogonalPerimeter;outlineConnect=0;targetShapes=umlLifeline;portConstraint=eastwest;newEdgeStyle={&quot;edgeStyle&quot;:&quot;elbowEdgeStyle&quot;,&quot;elbow&quot;:&quot;vertical&quot;,&quot;curved&quot;:0,&quot;rounded&quot;:0};" vertex="1" parent="6vysg8ZLrs8LIbjNRG5g-1">
          <mxGeometry x="45" y="80" width="10" height="140" as="geometry" />
        </mxCell>
        <mxCell id="6vysg8ZLrs8LIbjNRG5g-5" value="" style="verticalLabelPosition=bottom;verticalAlign=top;html=1;shape=mxgraph.basic.arc;startAngle=0.4984085036175459;endAngle=0;rotation=-180;" vertex="1" parent="1">
          <mxGeometry x="100" y="60" width="60" height="40" as="geometry" />
        </mxCell>
        <mxCell id="6vysg8ZLrs8LIbjNRG5g-6" value="4. 处理其他逻辑" style="text;html=1;strokeColor=none;fillColor=none;align=center;verticalAlign=middle;whiteSpace=wrap;rounded=0;" vertex="1" parent="1">
          <mxGeometry x="160" y="65" width="100" height="30" as="geometry" />
        </mxCell>
        <mxCell id="6vysg8ZLrs8LIbjNRG5g-9" value="5. 查询任务结果" style="html=1;verticalAlign=bottom;endArrow=block;edgeStyle=elbowEdgeStyle;elbow=vertical;curved=0;rounded=0;" edge="1" parent="1">
          <mxGeometry relative="1" as="geometry">
            <mxPoint x="126" y="116" as="sourcePoint" />
            <Array as="points">
              <mxPoint x="211" y="116" />
            </Array>
            <mxPoint x="296" y="116" as="targetPoint" />
          </mxGeometry>
        </mxCell>
        <mxCell id="6vysg8ZLrs8LIbjNRG5g-11" value="9. 查询任务结果" style="html=1;verticalAlign=bottom;endArrow=block;edgeStyle=elbowEdgeStyle;elbow=vertical;curved=0;rounded=0;" edge="1" parent="1">
          <mxGeometry relative="1" as="geometry">
            <mxPoint x="125" y="212" as="sourcePoint" />
            <Array as="points">
              <mxPoint x="210" y="212" />
            </Array>
            <mxPoint x="295" y="212" as="targetPoint" />
          </mxGeometry>
        </mxCell>
        <mxCell id="6vysg8ZLrs8LIbjNRG5g-14" value="3. 执行任务" style="html=1;verticalAlign=bottom;endArrow=block;edgeStyle=elbowEdgeStyle;elbow=vertical;curved=0;rounded=0;" edge="1" parent="1" source="aM9ryv3xv72pqoxQDRHE-6" target="6vysg8ZLrs8LIbjNRG5g-2">
          <mxGeometry relative="1" as="geometry">
            <mxPoint x="330" y="50" as="sourcePoint" />
            <Array as="points">
              <mxPoint x="385" y="50" />
            </Array>
            <mxPoint x="460" y="50" as="targetPoint" />
          </mxGeometry>
        </mxCell>
        <mxCell id="6vysg8ZLrs8LIbjNRG5g-15" value="7. 长耗时任务完成" style="html=1;verticalAlign=bottom;endArrow=open;dashed=1;endSize=8;edgeStyle=elbowEdgeStyle;elbow=vertical;curved=0;rounded=0;" edge="1" parent="1" source="6vysg8ZLrs8LIbjNRG5g-2" target="aM9ryv3xv72pqoxQDRHE-6">
          <mxGeometry relative="1" as="geometry">
            <mxPoint x="310" y="150" as="targetPoint" />
            <Array as="points">
              <mxPoint x="405" y="150" />
            </Array>
            <mxPoint x="460" y="150" as="sourcePoint" />
            <mxPoint as="offset" />
          </mxGeometry>
        </mxCell>
        <mxCell id="6vysg8ZLrs8LIbjNRG5g-17" value="5. 没有回复" style="html=1;verticalAlign=bottom;endArrow=open;dashed=1;endSize=8;edgeStyle=elbowEdgeStyle;elbow=vertical;curved=0;rounded=0;" edge="1" parent="1">
          <mxGeometry relative="1" as="geometry">
            <mxPoint x="95" y="590" as="targetPoint" />
            <Array as="points">
              <mxPoint x="190" y="590" />
            </Array>
            <mxPoint x="265" y="590" as="sourcePoint" />
          </mxGeometry>
        </mxCell>
        <mxCell id="6vysg8ZLrs8LIbjNRG5g-18" value="用户" style="shape=umlLifeline;perimeter=lifelinePerimeter;whiteSpace=wrap;html=1;container=0;dropTarget=0;collapsible=0;recursiveResize=0;outlineConnect=0;portConstraint=eastwest;newEdgeStyle={&quot;edgeStyle&quot;:&quot;elbowEdgeStyle&quot;,&quot;elbow&quot;:&quot;vertical&quot;,&quot;curved&quot;:0,&quot;rounded&quot;:0};" vertex="1" parent="1">
          <mxGeometry x="40" y="421" width="100" height="300" as="geometry" />
        </mxCell>
        <mxCell id="6vysg8ZLrs8LIbjNRG5g-19" value="" style="html=1;points=[];perimeter=orthogonalPerimeter;outlineConnect=0;targetShapes=umlLifeline;portConstraint=eastwest;newEdgeStyle={&quot;edgeStyle&quot;:&quot;elbowEdgeStyle&quot;,&quot;elbow&quot;:&quot;vertical&quot;,&quot;curved&quot;:0,&quot;rounded&quot;:0};" vertex="1" parent="6vysg8ZLrs8LIbjNRG5g-18">
          <mxGeometry x="45" y="70" width="10" height="190" as="geometry" />
        </mxCell>
        <mxCell id="6vysg8ZLrs8LIbjNRG5g-24" value="公众号" style="shape=umlLifeline;perimeter=lifelinePerimeter;whiteSpace=wrap;html=1;container=0;dropTarget=0;collapsible=0;recursiveResize=0;outlineConnect=0;portConstraint=eastwest;newEdgeStyle={&quot;edgeStyle&quot;:&quot;elbowEdgeStyle&quot;,&quot;elbow&quot;:&quot;vertical&quot;,&quot;curved&quot;:0,&quot;rounded&quot;:0};" vertex="1" parent="1">
          <mxGeometry x="220" y="420" width="100" height="300" as="geometry" />
        </mxCell>
        <mxCell id="6vysg8ZLrs8LIbjNRG5g-25" value="" style="html=1;points=[];perimeter=orthogonalPerimeter;outlineConnect=0;targetShapes=umlLifeline;portConstraint=eastwest;newEdgeStyle={&quot;edgeStyle&quot;:&quot;elbowEdgeStyle&quot;,&quot;elbow&quot;:&quot;vertical&quot;,&quot;curved&quot;:0,&quot;rounded&quot;:0};" vertex="1" parent="6vysg8ZLrs8LIbjNRG5g-24">
          <mxGeometry x="45" y="80" width="10" height="170" as="geometry" />
        </mxCell>
        <mxCell id="6vysg8ZLrs8LIbjNRG5g-26" value="1. 发送消息" style="html=1;verticalAlign=bottom;endArrow=block;edgeStyle=elbowEdgeStyle;elbow=vertical;curved=0;rounded=0;" edge="1" source="6vysg8ZLrs8LIbjNRG5g-19" target="6vysg8ZLrs8LIbjNRG5g-25" parent="1">
          <mxGeometry relative="1" as="geometry">
            <mxPoint x="195" y="510" as="sourcePoint" />
            <Array as="points">
              <mxPoint x="180" y="500" />
            </Array>
          </mxGeometry>
        </mxCell>
        <mxCell id="6vysg8ZLrs8LIbjNRG5g-28" value="服务器" style="shape=umlLifeline;perimeter=lifelinePerimeter;whiteSpace=wrap;html=1;container=0;dropTarget=0;collapsible=0;recursiveResize=0;outlineConnect=0;portConstraint=eastwest;newEdgeStyle={&quot;edgeStyle&quot;:&quot;elbowEdgeStyle&quot;,&quot;elbow&quot;:&quot;vertical&quot;,&quot;curved&quot;:0,&quot;rounded&quot;:0};" vertex="1" parent="1">
          <mxGeometry x="390" y="420" width="100" height="300" as="geometry" />
        </mxCell>
        <mxCell id="6vysg8ZLrs8LIbjNRG5g-29" value="" style="html=1;points=[];perimeter=orthogonalPerimeter;outlineConnect=0;targetShapes=umlLifeline;portConstraint=eastwest;newEdgeStyle={&quot;edgeStyle&quot;:&quot;elbowEdgeStyle&quot;,&quot;elbow&quot;:&quot;vertical&quot;,&quot;curved&quot;:0,&quot;rounded&quot;:0};" vertex="1" parent="6vysg8ZLrs8LIbjNRG5g-28">
          <mxGeometry x="45" y="80" width="10" height="170" as="geometry" />
        </mxCell>
        <mxCell id="6vysg8ZLrs8LIbjNRG5g-34" value="2. 转发消息" style="html=1;verticalAlign=bottom;endArrow=block;edgeStyle=elbowEdgeStyle;elbow=vertical;curved=0;rounded=0;" edge="1" parent="1">
          <mxGeometry relative="1" as="geometry">
            <mxPoint x="275" y="510" as="sourcePoint" />
            <Array as="points">
              <mxPoint x="355" y="510" />
            </Array>
            <mxPoint x="435" y="510" as="targetPoint" />
          </mxGeometry>
        </mxCell>
        <mxCell id="6vysg8ZLrs8LIbjNRG5g-36" value="OpenAI" style="shape=umlLifeline;perimeter=lifelinePerimeter;whiteSpace=wrap;html=1;container=0;dropTarget=0;collapsible=0;recursiveResize=0;outlineConnect=0;portConstraint=eastwest;newEdgeStyle={&quot;edgeStyle&quot;:&quot;elbowEdgeStyle&quot;,&quot;elbow&quot;:&quot;vertical&quot;,&quot;curved&quot;:0,&quot;rounded&quot;:0};" vertex="1" parent="1">
          <mxGeometry x="550" y="421" width="100" height="300" as="geometry" />
        </mxCell>
        <mxCell id="6vysg8ZLrs8LIbjNRG5g-37" value="" style="html=1;points=[];perimeter=orthogonalPerimeter;outlineConnect=0;targetShapes=umlLifeline;portConstraint=eastwest;newEdgeStyle={&quot;edgeStyle&quot;:&quot;elbowEdgeStyle&quot;,&quot;elbow&quot;:&quot;vertical&quot;,&quot;curved&quot;:0,&quot;rounded&quot;:0};" vertex="1" parent="6vysg8ZLrs8LIbjNRG5g-36">
          <mxGeometry x="45" y="80" width="10" height="170" as="geometry" />
        </mxCell>
        <mxCell id="6vysg8ZLrs8LIbjNRG5g-38" value="3. API 调用" style="html=1;verticalAlign=bottom;endArrow=block;edgeStyle=elbowEdgeStyle;elbow=vertical;curved=0;rounded=0;" edge="1" parent="1" source="6vysg8ZLrs8LIbjNRG5g-29" target="6vysg8ZLrs8LIbjNRG5g-37">
          <mxGeometry relative="1" as="geometry">
            <mxPoint x="450" y="520" as="sourcePoint" />
            <Array as="points">
              <mxPoint x="530" y="520" />
            </Array>
            <mxPoint x="610" y="520" as="targetPoint" />
          </mxGeometry>
        </mxCell>
        <mxCell id="6vysg8ZLrs8LIbjNRG5g-39" value="4. 5s 超时返回" style="html=1;verticalAlign=bottom;endArrow=open;dashed=1;endSize=8;edgeStyle=elbowEdgeStyle;elbow=vertical;curved=0;rounded=0;" edge="1" parent="1" source="6vysg8ZLrs8LIbjNRG5g-29" target="6vysg8ZLrs8LIbjNRG5g-25">
          <mxGeometry relative="1" as="geometry">
            <mxPoint x="270" y="580" as="targetPoint" />
            <Array as="points">
              <mxPoint x="365" y="580" />
            </Array>
            <mxPoint x="440" y="580" as="sourcePoint" />
          </mxGeometry>
        </mxCell>
        <mxCell id="6vysg8ZLrs8LIbjNRG5g-40" value="6. 10s 返回结果" style="html=1;verticalAlign=bottom;endArrow=open;dashed=1;endSize=8;edgeStyle=elbowEdgeStyle;elbow=vertical;curved=0;rounded=0;" edge="1" parent="1" source="6vysg8ZLrs8LIbjNRG5g-37" target="6vysg8ZLrs8LIbjNRG5g-29">
          <mxGeometry relative="1" as="geometry">
            <mxPoint x="440" y="610" as="targetPoint" />
            <Array as="points">
              <mxPoint x="540" y="610" />
            </Array>
            <mxPoint x="600" y="610" as="sourcePoint" />
            <mxPoint as="offset" />
          </mxGeometry>
        </mxCell>
        <mxCell id="6vysg8ZLrs8LIbjNRG5g-41" value="5. 没有回复" style="html=1;verticalAlign=bottom;endArrow=open;dashed=1;endSize=8;edgeStyle=elbowEdgeStyle;elbow=vertical;curved=0;rounded=0;" edge="1" parent="1">
          <mxGeometry relative="1" as="geometry">
            <mxPoint x="95" y="940" as="targetPoint" />
            <Array as="points">
              <mxPoint x="190" y="940" />
            </Array>
            <mxPoint x="265" y="940" as="sourcePoint" />
          </mxGeometry>
        </mxCell>
        <mxCell id="6vysg8ZLrs8LIbjNRG5g-42" value="用户" style="shape=umlLifeline;perimeter=lifelinePerimeter;whiteSpace=wrap;html=1;container=0;dropTarget=0;collapsible=0;recursiveResize=0;outlineConnect=0;portConstraint=eastwest;newEdgeStyle={&quot;edgeStyle&quot;:&quot;elbowEdgeStyle&quot;,&quot;elbow&quot;:&quot;vertical&quot;,&quot;curved&quot;:0,&quot;rounded&quot;:0};" vertex="1" parent="1">
          <mxGeometry x="40" y="771" width="100" height="300" as="geometry" />
        </mxCell>
        <mxCell id="6vysg8ZLrs8LIbjNRG5g-43" value="" style="html=1;points=[];perimeter=orthogonalPerimeter;outlineConnect=0;targetShapes=umlLifeline;portConstraint=eastwest;newEdgeStyle={&quot;edgeStyle&quot;:&quot;elbowEdgeStyle&quot;,&quot;elbow&quot;:&quot;vertical&quot;,&quot;curved&quot;:0,&quot;rounded&quot;:0};" vertex="1" parent="6vysg8ZLrs8LIbjNRG5g-42">
          <mxGeometry x="45" y="70" width="10" height="190" as="geometry" />
        </mxCell>
        <mxCell id="6vysg8ZLrs8LIbjNRG5g-44" value="公众号" style="shape=umlLifeline;perimeter=lifelinePerimeter;whiteSpace=wrap;html=1;container=0;dropTarget=0;collapsible=0;recursiveResize=0;outlineConnect=0;portConstraint=eastwest;newEdgeStyle={&quot;edgeStyle&quot;:&quot;elbowEdgeStyle&quot;,&quot;elbow&quot;:&quot;vertical&quot;,&quot;curved&quot;:0,&quot;rounded&quot;:0};" vertex="1" parent="1">
          <mxGeometry x="220" y="770" width="100" height="300" as="geometry" />
        </mxCell>
        <mxCell id="6vysg8ZLrs8LIbjNRG5g-45" value="" style="html=1;points=[];perimeter=orthogonalPerimeter;outlineConnect=0;targetShapes=umlLifeline;portConstraint=eastwest;newEdgeStyle={&quot;edgeStyle&quot;:&quot;elbowEdgeStyle&quot;,&quot;elbow&quot;:&quot;vertical&quot;,&quot;curved&quot;:0,&quot;rounded&quot;:0};" vertex="1" parent="6vysg8ZLrs8LIbjNRG5g-44">
          <mxGeometry x="45" y="80" width="10" height="180" as="geometry" />
        </mxCell>
        <mxCell id="6vysg8ZLrs8LIbjNRG5g-46" value="1. 发送消息" style="html=1;verticalAlign=bottom;endArrow=block;edgeStyle=elbowEdgeStyle;elbow=vertical;curved=0;rounded=0;" edge="1" source="6vysg8ZLrs8LIbjNRG5g-43" target="6vysg8ZLrs8LIbjNRG5g-45" parent="1">
          <mxGeometry relative="1" as="geometry">
            <mxPoint x="195" y="860" as="sourcePoint" />
            <Array as="points">
              <mxPoint x="180" y="850" />
            </Array>
          </mxGeometry>
        </mxCell>
        <mxCell id="6vysg8ZLrs8LIbjNRG5g-47" value="服务器" style="shape=umlLifeline;perimeter=lifelinePerimeter;whiteSpace=wrap;html=1;container=0;dropTarget=0;collapsible=0;recursiveResize=0;outlineConnect=0;portConstraint=eastwest;newEdgeStyle={&quot;edgeStyle&quot;:&quot;elbowEdgeStyle&quot;,&quot;elbow&quot;:&quot;vertical&quot;,&quot;curved&quot;:0,&quot;rounded&quot;:0};" vertex="1" parent="1">
          <mxGeometry x="390" y="770" width="100" height="300" as="geometry" />
        </mxCell>
        <mxCell id="6vysg8ZLrs8LIbjNRG5g-48" value="" style="html=1;points=[];perimeter=orthogonalPerimeter;outlineConnect=0;targetShapes=umlLifeline;portConstraint=eastwest;newEdgeStyle={&quot;edgeStyle&quot;:&quot;elbowEdgeStyle&quot;,&quot;elbow&quot;:&quot;vertical&quot;,&quot;curved&quot;:0,&quot;rounded&quot;:0};" vertex="1" parent="6vysg8ZLrs8LIbjNRG5g-47">
          <mxGeometry x="45" y="80" width="10" height="170" as="geometry" />
        </mxCell>
        <mxCell id="6vysg8ZLrs8LIbjNRG5g-49" value="2. 转发消息" style="html=1;verticalAlign=bottom;endArrow=block;edgeStyle=elbowEdgeStyle;elbow=vertical;curved=0;rounded=0;" edge="1" parent="1">
          <mxGeometry relative="1" as="geometry">
            <mxPoint x="275" y="860" as="sourcePoint" />
            <Array as="points">
              <mxPoint x="355" y="860" />
            </Array>
            <mxPoint x="435" y="860" as="targetPoint" />
          </mxGeometry>
        </mxCell>
        <mxCell id="6vysg8ZLrs8LIbjNRG5g-50" value="OpenAI" style="shape=umlLifeline;perimeter=lifelinePerimeter;whiteSpace=wrap;html=1;container=0;dropTarget=0;collapsible=0;recursiveResize=0;outlineConnect=0;portConstraint=eastwest;newEdgeStyle={&quot;edgeStyle&quot;:&quot;elbowEdgeStyle&quot;,&quot;elbow&quot;:&quot;vertical&quot;,&quot;curved&quot;:0,&quot;rounded&quot;:0};" vertex="1" parent="1">
          <mxGeometry x="550" y="771" width="100" height="300" as="geometry" />
        </mxCell>
        <mxCell id="6vysg8ZLrs8LIbjNRG5g-51" value="" style="html=1;points=[];perimeter=orthogonalPerimeter;outlineConnect=0;targetShapes=umlLifeline;portConstraint=eastwest;newEdgeStyle={&quot;edgeStyle&quot;:&quot;elbowEdgeStyle&quot;,&quot;elbow&quot;:&quot;vertical&quot;,&quot;curved&quot;:0,&quot;rounded&quot;:0};" vertex="1" parent="6vysg8ZLrs8LIbjNRG5g-50">
          <mxGeometry x="45" y="80" width="10" height="170" as="geometry" />
        </mxCell>
        <mxCell id="6vysg8ZLrs8LIbjNRG5g-52" value="3. API 调用" style="html=1;verticalAlign=bottom;endArrow=block;edgeStyle=elbowEdgeStyle;elbow=vertical;curved=0;rounded=0;" edge="1" source="6vysg8ZLrs8LIbjNRG5g-48" target="6vysg8ZLrs8LIbjNRG5g-51" parent="1">
          <mxGeometry relative="1" as="geometry">
            <mxPoint x="450" y="870" as="sourcePoint" />
            <Array as="points">
              <mxPoint x="530" y="870" />
            </Array>
            <mxPoint x="610" y="870" as="targetPoint" />
          </mxGeometry>
        </mxCell>
        <mxCell id="6vysg8ZLrs8LIbjNRG5g-53" value="4. 5s 超时返回" style="html=1;verticalAlign=bottom;endArrow=open;dashed=1;endSize=8;edgeStyle=elbowEdgeStyle;elbow=vertical;curved=0;rounded=0;" edge="1" source="6vysg8ZLrs8LIbjNRG5g-48" target="6vysg8ZLrs8LIbjNRG5g-45" parent="1">
          <mxGeometry relative="1" as="geometry">
            <mxPoint x="270" y="930" as="targetPoint" />
            <Array as="points">
              <mxPoint x="365" y="930" />
            </Array>
            <mxPoint x="440" y="930" as="sourcePoint" />
          </mxGeometry>
        </mxCell>
        <mxCell id="6vysg8ZLrs8LIbjNRG5g-54" value="7. 10s 返回结果" style="html=1;verticalAlign=bottom;endArrow=open;dashed=1;endSize=8;edgeStyle=elbowEdgeStyle;elbow=vertical;curved=0;rounded=0;" edge="1" parent="1">
          <mxGeometry relative="1" as="geometry">
            <mxPoint x="445" y="1010" as="targetPoint" />
            <Array as="points">
              <mxPoint x="540" y="1010" />
            </Array>
            <mxPoint x="595" y="1010" as="sourcePoint" />
            <mxPoint as="offset" />
          </mxGeometry>
        </mxCell>
        <mxCell id="6vysg8ZLrs8LIbjNRG5g-56" value="6. 第一次重试" style="html=1;verticalAlign=bottom;endArrow=block;edgeStyle=elbowEdgeStyle;elbow=horizontal;curved=0;rounded=0;" edge="1" parent="1" source="6vysg8ZLrs8LIbjNRG5g-45" target="6vysg8ZLrs8LIbjNRG5g-48">
          <mxGeometry relative="1" as="geometry">
            <mxPoint x="280" y="980" as="sourcePoint" />
            <Array as="points">
              <mxPoint x="360" y="980" />
            </Array>
            <mxPoint x="440" y="980" as="targetPoint" />
          </mxGeometry>
        </mxCell>
        <mxCell id="6vysg8ZLrs8LIbjNRG5g-57" value="8. 返回响应消息" style="html=1;verticalAlign=bottom;endArrow=open;dashed=1;endSize=8;edgeStyle=elbowEdgeStyle;elbow=vertical;curved=0;rounded=0;" edge="1" parent="1">
          <mxGeometry relative="1" as="geometry">
            <mxPoint x="275" y="1020" as="targetPoint" />
            <Array as="points">
              <mxPoint x="365" y="1020" />
            </Array>
            <mxPoint x="435" y="1020" as="sourcePoint" />
          </mxGeometry>
        </mxCell>
        <mxCell id="6vysg8ZLrs8LIbjNRG5g-58" value="9. 收到回复" style="html=1;verticalAlign=bottom;endArrow=open;dashed=1;endSize=8;edgeStyle=elbowEdgeStyle;elbow=vertical;curved=0;rounded=0;" edge="1" parent="1" target="6vysg8ZLrs8LIbjNRG5g-43">
          <mxGeometry relative="1" as="geometry">
            <mxPoint x="110" y="1030" as="targetPoint" />
            <Array as="points">
              <mxPoint x="200" y="1030" />
            </Array>
            <mxPoint x="270" y="1030" as="sourcePoint" />
          </mxGeometry>
        </mxCell>
        <mxCell id="6vysg8ZLrs8LIbjNRG5g-59" value="" style="verticalLabelPosition=bottom;verticalAlign=top;html=1;shape=mxgraph.basic.arc;startAngle=0.4984085036175459;endAngle=0;rotation=-180;" vertex="1" parent="1">
          <mxGeometry x="277" y="160" width="60" height="40" as="geometry" />
        </mxCell>
        <mxCell id="6vysg8ZLrs8LIbjNRG5g-60" value="8. 储存任务结果" style="text;html=1;strokeColor=none;fillColor=none;align=center;verticalAlign=middle;whiteSpace=wrap;rounded=0;" vertex="1" parent="1">
          <mxGeometry x="337" y="165" width="100" height="30" as="geometry" />
        </mxCell>
      </root>
    </mxGraphModel>
  </diagram>
</mxfile>
